<?xml version="1.0" standalone="no"?>
<!DOCTYPE svg PUBLIC "-//W3C//DTD SVG 20010904//EN"
 "http://www.w3.org/TR/2001/REC-SVG-20010904/DTD/svg10.dtd">
<svg version="1.0" xmlns="http://www.w3.org/2000/svg"
 width="1206.000000pt" height="1229.000000pt" viewBox="0 0 1206.000000 1229.000000"
 preserveAspectRatio="xMidYMid meet">

<g transform="translate(0.000000,1229.000000) scale(0.100000,-0.100000)"
fill="#000000" stroke="none">
<path d="M6135 9176 c-114 -28 -210 -103 -259 -202 -48 -96 -61 -165 -61 -336
l0 -158 -23 0 c-39 0 -174 -49 -224 -82 -26 -16 -69 -54 -96 -83 -47 -51 -49
-52 -75 -38 -49 25 -178 53 -246 53 -129 0 -241 -40 -311 -110 -39 -39 -163
-240 -201 -325 -20 -44 -22 -46 -52 -39 -51 11 -154 7 -189 -7 -108 -43 -144
-93 -187 -258 -17 -63 -32 -115 -35 -118 -2 -3 -13 0 -24 6 -57 30 -154 0
-215 -68 -44 -49 -57 -78 -57 -131 0 -55 15 -89 63 -137 65 -67 161 -86 218
-44 l28 21 15 -29 c9 -16 26 -42 39 -57 17 -20 26 -47 30 -85 3 -31 17 -82 32
-113 l27 -57 -51 -54 c-50 -52 -81 -107 -81 -140 0 -29 38 -55 80 -55 l40 0 0
-43 c0 -61 32 -91 92 -85 24 3 51 8 61 12 14 7 12 -4 -14 -60 -17 -38 -50
-125 -74 -194 -24 -69 -59 -170 -79 -225 -19 -55 -42 -136 -51 -179 -34 -168
-37 -585 -5 -746 23 -120 87 -195 227 -267 125 -64 246 -99 628 -177 594 -121
1172 -173 1645 -148 259 14 314 31 460 140 195 145 241 225 299 519 52 264 51
340 -13 688 -19 105 -44 255 -56 335 -12 80 -30 185 -41 235 -10 49 -19 90
-19 92 0 2 30 -17 66 -42 64 -44 106 -55 149 -39 19 8 45 55 45 82 0 14 9 21
32 26 50 10 76 32 84 71 7 39 -16 114 -42 135 -26 23 -14 30 49 30 152 0 263
36 328 107 136 148 94 294 -144 501 -184 161 -305 242 -361 242 -11 0 -42 17
-70 39 -28 21 -65 46 -82 56 -30 17 -32 21 -31 74 1 108 -57 217 -151 286 -59
44 -176 89 -268 105 l-72 11 -5 42 c-9 63 -62 108 -168 143 -71 23 -107 27
-232 32 l-148 4 -14 29 c-26 50 -80 82 -145 87 -33 2 -73 -1 -91 -7 l-32 -11
5 88 c7 111 35 175 146 322 57 75 92 112 123 129 85 46 109 69 109 105 0 89
-166 141 -325 102z m149 -104 c2 -4 -11 -18 -31 -32 -41 -28 -178 -208 -224
-293 -37 -70 -59 -145 -59 -207 0 -50 -10 -73 -26 -62 -17 11 -24 158 -14 260
16 150 69 255 154 300 55 29 189 52 200 34z m-409 -810 c42 -125 49 -139 75
-147 25 -8 70 19 70 40 0 8 8 15 18 15 31 0 53 33 54 84 0 39 5 50 28 66 35
25 81 26 110 2 19 -16 21 -21 11 -41 -27 -50 13 -86 82 -74 23 4 98 8 167 8
103 0 138 -5 200 -24 41 -12 81 -28 88 -33 19 -16 14 -42 -13 -68 -30 -28 -33
-70 -6 -94 17 -15 27 -16 66 -8 58 12 176 -1 250 -29 119 -44 200 -127 212
-216 4 -33 0 -47 -28 -86 l-33 -47 -13 32 c-19 44 -50 76 -97 100 -34 17 -45
19 -78 9 -93 -28 -81 -128 14 -119 45 4 68 -38 70 -125 2 -127 -60 -187 -192
-187 -108 0 -196 55 -249 155 -28 53 -26 79 5 104 46 36 161 18 202 -32 22
-26 11 -60 -21 -68 -40 -11 -57 -28 -57 -57 0 -106 170 -63 201 50 32 121 -94
238 -255 238 -237 0 -283 -221 -85 -405 77 -71 147 -98 254 -98 143 -1 239 51
286 155 20 44 24 68 23 144 l-1 90 23 -23 c16 -15 35 -23 59 -23 47 0 86 -21
147 -78 63 -58 78 -88 78 -151 0 -69 -32 -147 -85 -210 -25 -29 -45 -58 -45
-65 0 -23 32 -56 54 -56 28 0 36 -16 36 -76 0 -61 -14 -84 -50 -84 -33 0 -65
-36 -55 -62 8 -19 -108 -118 -179 -153 -60 -30 -126 -32 -242 -8 -92 19 -111
15 -125 -26 -13 -37 -74 -77 -200 -132 -142 -62 -260 -89 -388 -89 -128 0
-195 11 -316 51 -130 43 -189 77 -195 114 -3 18 -15 35 -32 44 -24 14 -29 13
-65 -11 -62 -43 -112 -51 -263 -44 -299 15 -543 69 -747 168 -55 27 -84 47
-89 61 -10 34 -54 75 -86 82 -33 8 -62 48 -79 109 -9 34 -8 41 12 62 32 34 17
75 -31 90 -74 24 -112 139 -92 276 15 102 56 268 77 312 21 44 80 76 141 76
65 0 124 -17 131 -38 10 -28 45 -62 65 -62 11 0 32 7 47 15 49 25 54 68 15
114 -18 22 -24 37 -19 53 13 44 156 276 192 312 80 80 263 95 405 34 37 -16
50 -28 62 -58 19 -47 45 -64 80 -50 25 9 29 18 41 93 12 72 104 149 223 188
95 31 98 29 137 -89z m1968 -1024 c113 -96 187 -182 207 -242 9 -29 8 -41 -6
-68 -51 -103 -123 -125 -381 -119 l-61 1 10 37 c12 44 5 119 -17 185 -16 45
-16 48 8 95 40 78 60 160 54 215 l-6 49 41 -30 c23 -17 91 -72 151 -123z
m-3740 83 c6 -7 21 -17 34 -22 17 -6 23 -16 23 -39 0 -20 -5 -30 -15 -30 -8 0
-24 -9 -35 -20 -28 -28 -47 -25 -86 14 -41 41 -43 64 -7 106 36 43 67 55 71
26 2 -11 9 -27 15 -35z m362 -667 c30 -20 55 -40 55 -43 0 -4 -18 -25 -40 -46
l-40 -39 0 49 c0 50 -20 85 -48 85 -12 0 -12 3 -2 15 7 8 14 15 16 15 3 0 29
-16 59 -36z m3100 -24 c26 0 39 -6 51 -25 24 -36 14 -45 -31 -29 -22 7 -50 14
-62 14 -30 0 -57 -41 -48 -72 6 -18 -2 -14 -39 22 -25 24 -46 47 -46 51 0 3
23 24 52 47 l52 40 19 -24 c13 -17 28 -24 52 -24z m-2772 -131 c242 -80 685
-126 820 -85 37 11 48 11 59 0 21 -20 167 -89 238 -112 223 -73 414 -78 627
-16 114 33 318 131 365 175 l37 35 82 -14 c80 -13 136 -10 217 14 19 6 22 3
22 -24 0 -17 11 -81 24 -144 14 -62 34 -178 45 -256 12 -79 37 -230 57 -335
49 -258 55 -409 24 -574 -59 -317 -90 -378 -255 -504 -160 -121 -162 -121
-600 -126 -336 -4 -376 -3 -605 21 -337 36 -552 68 -813 122 -468 96 -604 140
-712 235 -63 56 -85 170 -85 449 0 281 18 387 107 635 89 250 122 329 168 405
24 41 46 89 50 108 5 26 10 32 23 27 9 -4 57 -20 105 -36z"/>
<path d="M7707 7209 c-42 -25 -36 -94 9 -105 36 -9 78 17 82 49 6 52 -45 83
-91 56z"/>
<path d="M5426 5824 c-21 -20 -20 -58 0 -79 26 -25 85 -16 103 16 13 24 13 29
-2 53 -20 30 -75 36 -101 10z"/>
<path d="M6235 5805 c-29 -28 -31 -42 -9 -73 19 -27 64 -29 87 -4 24 26 21 68
-5 86 -31 22 -45 20 -73 -9z"/>
<path d="M4977 5213 c-22 -25 -22 -66 1 -86 12 -11 88 -24 272 -46 593 -72
711 -83 900 -88 215 -5 240 0 284 59 16 23 18 32 8 52 -17 37 -54 43 -98 16
-34 -22 -43 -23 -192 -17 -145 5 -375 29 -897 92 -110 13 -214 27 -230 30 -23
5 -35 2 -48 -12z"/>
</g>
</svg>
