<?xml version="1.0" standalone="no"?>
<!DOCTYPE svg PUBLIC "-//W3C//DTD SVG 20010904//EN"
 "http://www.w3.org/TR/2001/REC-SVG-20010904/DTD/svg10.dtd">
<svg version="1.0" xmlns="http://www.w3.org/2000/svg"
 width="400.000000pt" height="400.000000pt" viewBox="0 0 400.000000 400.000000"
 preserveAspectRatio="xMidYMid meet">

<g transform="translate(0.000000,400.000000) scale(0.100000,-0.100000)"
fill="#000000" stroke="none">
<path d="M2151 3930 c-108 -23 -191 -93 -232 -196 -19 -49 -23 -82 -27 -200
l-4 -140 -69 -18 c-69 -18 -180 -81 -199 -114 -24 -42 -24 -42 -80 -20 -45 18
-76 22 -165 22 -101 1 -115 -1 -167 -27 -32 -16 -70 -44 -86 -65 -38 -49 -130
-203 -143 -239 -9 -28 -10 -29 -78 -25 -79 5 -128 -8 -172 -45 -39 -34 -54
-64 -79 -165 l-21 -84 -57 3 c-66 5 -103 -13 -147 -72 -64 -83 -16 -203 94
-236 30 -9 44 -8 75 5 21 9 40 16 41 16 13 0 60 -93 62 -123 2 -21 12 -59 23
-84 l20 -45 -40 -46 c-53 -64 -65 -98 -45 -128 11 -16 25 -24 45 -24 27 0 30
-3 30 -30 0 -43 33 -73 73 -68 18 3 40 8 49 12 14 7 12 -4 -13 -59 -45 -101
-137 -369 -154 -452 -35 -168 -29 -510 10 -625 29 -82 123 -151 280 -205 96
-32 499 -118 675 -143 330 -46 505 -60 769 -60 141 0 285 5 321 11 85 13 159
48 245 114 124 95 160 154 201 333 52 232 52 297 -5 622 -16 91 -39 221 -50
290 -12 69 -24 138 -28 155 l-6 30 24 -18 c13 -10 43 -27 67 -38 37 -17 46
-18 70 -7 16 8 31 25 36 45 7 24 17 34 38 38 32 7 58 39 58 71 0 11 -10 41
-23 66 l-23 46 90 4 c139 6 213 48 257 143 26 55 24 82 -11 153 -58 115 -342
352 -423 352 -14 0 -31 8 -38 17 -8 9 -34 29 -59 45 -43 28 -44 30 -46 83 -5
143 -128 254 -321 288 -59 10 -63 13 -63 38 0 44 -43 85 -113 108 -87 29 -191
43 -253 35 -51 -6 -53 -5 -69 25 -10 19 -33 40 -60 53 -40 19 -51 21 -96 11
l-52 -10 6 64 c8 80 32 135 105 236 43 61 73 90 125 123 70 46 82 69 54 105
-33 43 -140 67 -226 49z m99 -86 c0 -3 -14 -17 -32 -32 -44 -38 -146 -177
-175 -240 -14 -29 -28 -83 -31 -120 -4 -37 -11 -67 -17 -66 -16 1 -26 93 -19
178 11 151 65 240 162 270 48 15 112 21 112 10z m-315 -625 c15 -45 36 -90 45
-99 22 -22 57 -16 65 11 4 10 12 19 19 19 22 0 36 25 38 64 1 25 8 40 24 51
48 31 103 9 89 -35 -4 -14 -1 -28 11 -41 14 -16 24 -18 53 -12 105 23 316 -3
357 -44 14 -14 13 -18 -10 -42 -54 -56 -26 -91 67 -84 157 13 312 -72 333
-181 4 -24 -1 -42 -18 -69 -25 -39 -38 -46 -38 -21 0 23 -62 82 -94 90 -34 8
-83 -12 -92 -38 -8 -27 24 -61 53 -55 35 7 56 -25 60 -91 5 -69 -19 -116 -72
-138 -97 -40 -214 7 -266 108 -25 48 -24 63 3 82 28 20 65 20 110 2 66 -28 75
-73 17 -86 -18 -4 -25 -13 -27 -38 -3 -26 1 -34 23 -44 59 -27 146 61 130 132
-32 144 -288 185 -349 56 -21 -44 -20 -71 5 -125 32 -71 84 -127 147 -158 115
-56 272 -29 327 56 36 56 48 107 41 170 -6 53 -6 55 9 34 12 -17 26 -23 53
-23 44 -1 122 -53 152 -103 39 -63 17 -167 -50 -244 -17 -18 -30 -37 -30 -41
0 -16 25 -40 45 -44 16 -3 21 -12 23 -51 3 -47 -11 -82 -29 -71 -17 10 -49
-17 -49 -41 0 -27 -91 -108 -150 -133 -35 -14 -105 -13 -217 4 -39 6 -42 4
-57 -24 -18 -35 -70 -68 -171 -110 -121 -50 -204 -65 -318 -59 -116 6 -192 24
-289 69 -56 26 -68 35 -68 55 0 15 -9 27 -25 35 -22 10 -30 8 -58 -13 -31 -23
-38 -24 -187 -23 -218 1 -393 36 -571 116 -48 21 -73 40 -90 66 -13 19 -32 39
-41 44 -10 4 -26 12 -35 17 -10 4 -27 29 -37 54 -18 44 -18 48 -3 65 28 31 15
72 -22 72 -9 0 -27 16 -41 36 -35 53 -39 146 -10 272 40 171 62 203 149 204
65 1 95 -11 113 -42 20 -36 58 -40 88 -10 25 25 25 41 -1 75 -21 26 -21 28 -4
63 30 65 113 196 137 219 39 36 95 54 172 55 100 0 165 -26 189 -75 14 -27 25
-37 42 -37 29 0 41 15 49 64 10 54 67 111 141 141 33 14 72 25 87 25 24 0 29
-6 53 -81z m-1345 -744 c25 -8 27 -50 3 -59 -10 -3 -26 -11 -35 -18 -14 -10
-21 -9 -38 7 -50 45 -49 84 3 116 l32 19 8 -29 c4 -17 16 -33 27 -36z m2855
-38 c105 -89 162 -157 170 -204 7 -32 -21 -83 -58 -108 -31 -20 -156 -36 -228
-28 l-55 5 4 57 c2 35 -2 73 -12 101 -15 43 -15 46 12 99 17 36 28 77 30 118
5 75 -1 77 137 -40z m-2555 -497 c0 -5 -12 -18 -27 -30 l-28 -22 -3 36 c-2 22
-11 41 -24 50 -11 8 -17 19 -13 25 7 12 95 -43 95 -59z m2344 20 c23 0 64 -35
53 -46 -3 -3 -22 0 -42 7 -42 15 -68 5 -73 -30 -4 -28 -13 -27 -46 8 l-27 28
43 36 c41 34 43 35 56 16 7 -10 23 -19 36 -19z m-2123 -105 c179 -56 515 -93
611 -66 42 12 46 11 100 -22 175 -105 430 -134 628 -71 107 33 241 99 278 135
26 26 31 27 73 18 45 -11 151 -8 180 5 14 6 20 -13 43 -131 14 -76 33 -183 41
-238 8 -55 26 -160 40 -233 40 -212 42 -293 10 -451 -44 -224 -76 -281 -211
-377 -107 -77 -112 -77 -443 -82 -250 -3 -325 0 -495 18 -351 37 -792 118
-970 179 -98 34 -189 89 -210 128 -34 67 -47 342 -25 528 16 135 140 493 208
601 17 26 31 59 31 72 0 16 5 22 13 19 7 -3 51 -17 98 -32z"/>
<path d="M3343 2403 c-11 -8 -16 -27 -14 -50 2 -22 37 -34 66 -23 22 8 26 15
23 42 -3 29 -7 33 -33 36 -16 1 -35 -1 -42 -5z"/>
<path d="M1594 1342 c-22 -15 -24 -42 -4 -62 23 -23 33 -24 61 -10 21 12 25
50 7 68 -13 13 -47 16 -64 4z"/>
<path d="M2216 1327 c-12 -9 -17 -23 -14 -42 2 -24 8 -31 31 -33 16 -2 35 2
43 9 20 17 17 56 -5 69 -25 13 -33 13 -55 -3z"/>
<path d="M1248 869 c-22 -12 -23 -52 -2 -70 17 -14 66 -20 540 -74 365 -41
486 -44 544 -15 49 25 60 55 31 83 -21 21 -21 21 -56 3 -57 -31 -237 -19 -880
59 -71 9 -137 18 -145 20 -8 2 -23 0 -32 -6z"/>
</g>
</svg>
